<svg width="90" height="46" viewBox="0 0 90 46" fill="none" xmlns="http://www.w3.org/2000/svg">
<path d="M0.0149153 10.6174C0.0311865 18.7258 1.28 23.1195 3.98983 24.6011C5.20746 25.2675 5.28203 25.5896 4.5817 27.1599C4.14102 28.1483 3.52881 29.2247 3.38983 28.8001C3.25153 28.3762 3.38983 26.7221 3.38983 26.7221H0.0596611V35.2074L0.119322 43L4.53017 33.6565C8.56881 25.1026 8.83932 24.2534 7.73085 23.6127C7.06508 23.2275 5.81627 22.2252 4.95525 21.385C3.52339 19.9886 3.38983 19.2661 3.38983 12.8997V5.9418H8.81356C11.7966 5.9418 14.2373 6.10804 14.2373 6.31099C14.2373 6.51464 13.4692 8.22902 12.5308 10.1207L10.8244 13.5612H12.44C13.7864 13.5612 14.4095 12.7522 16.1803 8.70627C17.3492 6.036 18.3051 3.69822 18.3051 3.5112C18.3051 3.32417 14.1864 3.17109 9.15254 3.17109H0L0.0149153 10.6174Z" fill="#7ACCA6"/>
<path fill-rule="evenodd" clip-rule="evenodd" d="M10.7193 22.8265L1.48537 42.6537H20.023H38.5606L35.1389 35.2074C31.7254 27.7791 29.3945 24.6441 27.284 24.6441C26.4169 24.6441 26.3505 24.4591 26.983 23.8129C28.5179 22.2446 27.7911 19.2848 23.8745 11.148L19.9525 3L10.7193 22.8265ZM24.1606 22.8646C25.2623 21.1467 25.2237 20.9154 23.0149 16.111C21.7566 13.3756 20.5382 10.8924 20.3071 10.5945C19.9477 10.1297 13.5593 23.0294 13.5593 24.2201C13.5593 24.4529 15.6881 24.6441 18.2894 24.6441C22.6203 24.6441 23.1159 24.4938 24.1606 22.8646ZM33.701 39.6232C33.8562 39.4639 32.741 36.8075 31.2216 33.7202L28.4596 28.1075H19.9484H11.4366L8.8535 33.822L6.27045 39.5366L19.844 39.7243C27.3098 39.8275 33.545 39.7818 33.701 39.6232Z" fill="#99A3FF"/>
<path d="M29.9477 22.0465C34.7918 32.4284 39.0352 41.2177 39.3776 41.58C39.7559 41.9804 39.9999 34.5798 39.9999 22.7046V3.17109H36.6101C33.6725 3.17109 33.2203 3.35604 33.2203 4.55644C33.2203 5.5726 33.6725 5.9418 34.9152 5.9418H36.6101L36.5769 17.5441L36.5443 29.1465L33.4623 22.566C26.3362 7.34932 25.8318 6.06302 26.8406 5.6675C27.366 5.46108 27.7966 4.81551 27.7966 4.23158C27.7966 3.42323 27.0054 3.17109 24.4684 3.17109H21.1396L29.9477 22.0465Z" fill="#99A3FF"/>
<path d="M56.68 3.8H50.9V4.74H51.12C51.6133 4.74 52.02 4.78667 52.34 4.88C52.66 4.97333 52.82 5.16667 52.82 5.46V16.34C52.82 16.6333 52.66 16.8267 52.34 16.92C52.02 17.0133 51.6133 17.06 51.12 17.06H50.9V18H61.52V13.52H60.32L60.14 15.96C60.1267 16.2 60.0267 16.38 59.84 16.5C59.6667 16.62 59.4 16.7067 59.04 16.76C58.68 16.8 58.2133 16.82 57.64 16.82H54.68V5.46C54.68 5.16667 54.8467 4.97333 55.18 4.88C55.5133 4.78667 55.94 4.74 56.46 4.74H56.68V3.8ZM69.0628 3.8H63.2828V4.74H63.5028C63.9961 4.74 64.4028 4.78667 64.7228 4.88C65.0428 4.97333 65.2028 5.16667 65.2028 5.46V16.34C65.2028 16.6333 65.0428 16.8267 64.7228 16.92C64.4028 17.0133 63.9961 17.06 63.5028 17.06H63.2828V18H73.9028V13.52H72.7028L72.5228 15.96C72.5095 16.2 72.4095 16.38 72.2228 16.5C72.0495 16.62 71.7828 16.7067 71.4228 16.76C71.0628 16.8 70.5961 16.82 70.0228 16.82H67.0628V5.46C67.0628 5.16667 67.2295 4.97333 67.5628 4.88C67.8961 4.78667 68.3228 4.74 68.8428 4.74H69.0628V3.8ZM82.3656 4.84C81.7256 4.84 81.119 4.98667 80.5456 5.28C79.9856 5.56 79.4923 5.96667 79.0656 6.5C78.639 7.03333 78.3056 7.67333 78.0656 8.42C77.8256 9.15333 77.7056 9.98 77.7056 10.9C77.7056 11.82 77.819 12.6533 78.0456 13.4C78.2856 14.1333 78.619 14.7667 79.0456 15.3C79.4723 15.8333 79.9923 16.2467 80.6056 16.54C81.219 16.82 81.9056 16.96 82.6656 16.96C83.4523 16.96 84.1456 16.78 84.7456 16.42C85.3456 16.06 85.8456 15.5733 86.2456 14.96C86.659 14.3333 86.959 13.64 87.1456 12.88L88.3656 13.34C88.139 14.2867 87.759 15.1267 87.2256 15.86C86.7056 16.5933 86.0456 17.1667 85.2456 17.58C84.459 17.9933 83.559 18.2 82.5456 18.2C81.5456 18.2 80.6256 18.0267 79.7856 17.68C78.959 17.32 78.239 16.82 77.6256 16.18C77.0123 15.5267 76.539 14.7533 76.2056 13.86C75.8723 12.9667 75.7056 11.98 75.7056 10.9C75.7056 9.83333 75.879 8.85333 76.2256 7.96C76.5723 7.06667 77.0523 6.29333 77.6656 5.64C78.279 4.98667 78.9856 4.48667 79.7856 4.14C80.5856 3.78 81.439 3.6 82.3456 3.6C83.2656 3.6 84.0523 3.74 84.7056 4.02C85.359 4.28667 85.899 4.67333 86.3256 5.18C86.7523 5.67333 87.0723 6.26667 87.2856 6.96H86.5456L86.8656 3.8H88.0656V8.08H86.7256C86.5123 7.42667 86.2123 6.86 85.8256 6.38C85.439 5.9 84.959 5.52667 84.3856 5.26C83.8256 4.98 83.1523 4.84 82.3656 4.84ZM56.76 40C57.36 40 57.8733 39.9133 58.3 39.74C58.74 39.5667 59.08 39.3 59.32 38.94C59.56 38.5667 59.68 38.1 59.68 37.54C59.68 37.02 59.5733 36.5867 59.36 36.24C59.1467 35.8933 58.86 35.6133 58.5 35.4C58.14 35.1733 57.7267 34.9867 57.26 34.84C56.8067 34.68 56.3333 34.5333 55.84 34.4C55.3067 34.2533 54.7733 34.0867 54.24 33.9C53.72 33.7133 53.2467 33.4667 52.82 33.16C52.3933 32.8533 52.0533 32.4667 51.8 32C51.5467 31.5333 51.42 30.9467 51.42 30.24C51.42 29.4933 51.6067 28.8533 51.98 28.32C52.3667 27.7733 52.8733 27.3533 53.5 27.06C54.14 26.7533 54.84 26.6 55.6 26.6C56.2 26.6 56.7667 26.6867 57.3 26.86C57.8333 27.02 58.3267 27.3133 58.78 27.74C59.2333 28.1667 59.62 28.78 59.94 29.58L59.22 29.7L59.52 26.8H60.66V30.52H59.38C59.1667 29.9467 58.88 29.46 58.52 29.06C58.1733 28.6467 57.7667 28.3333 57.3 28.12C56.8333 27.8933 56.3267 27.78 55.78 27.78C55.22 27.78 54.74 27.8733 54.34 28.06C53.94 28.2467 53.6333 28.5133 53.42 28.86C53.2067 29.1933 53.1 29.6 53.1 30.08C53.1 30.5333 53.2067 30.9133 53.42 31.22C53.6333 31.5133 53.92 31.76 54.28 31.96C54.64 32.16 55.0533 32.3333 55.52 32.48C55.9867 32.6133 56.4667 32.7467 56.96 32.88C57.52 33.0267 58.0667 33.2 58.6 33.4C59.1333 33.5867 59.6133 33.8333 60.04 34.14C60.48 34.4467 60.8267 34.84 61.08 35.32C61.3333 35.8 61.46 36.4 61.46 37.12C61.46 37.9867 61.2467 38.7267 60.82 39.34C60.4067 39.9533 59.8467 40.42 59.14 40.74C58.4467 41.0467 57.68 41.2 56.84 41.2C56.08 41.2 55.3467 41.08 54.64 40.84C53.9467 40.5867 53.3267 40.1933 52.78 39.66C52.2333 39.1267 51.8067 38.4133 51.5 37.52L52.42 37.6L52.12 41H50.9V36.58H52.18C52.4067 37.2467 52.74 37.84 53.18 38.36C53.62 38.88 54.1467 39.2867 54.76 39.58C55.3733 39.86 56.04 40 56.76 40ZM69.3809 26.8C70.1409 26.8 70.8143 26.8867 71.4009 27.06C72.0009 27.22 72.5009 27.46 72.9009 27.78C73.3143 28.0867 73.6276 28.4667 73.8409 28.92C74.0543 29.36 74.1609 29.8533 74.1609 30.4C74.1609 31.0667 73.9743 31.66 73.6009 32.18C73.2276 32.6867 72.6743 33.08 71.9409 33.36C71.2076 33.64 70.3009 33.78 69.2209 33.78L70.8209 33.02V33.98L69.4009 33.26C70.5609 33.26 71.5409 33.4133 72.3409 33.72C73.1409 34.0267 73.7476 34.4667 74.1609 35.04C74.5743 35.6 74.7809 36.26 74.7809 37.02C74.7809 37.6333 74.6609 38.1867 74.4209 38.68C74.1943 39.1733 73.8543 39.5933 73.4009 39.94C72.9609 40.2867 72.4209 40.5533 71.7809 40.74C71.1409 40.9133 70.4076 41 69.5809 41H63.3609V40.06H63.5809C64.0743 40.06 64.4809 40.0133 64.8009 39.92C65.1209 39.8267 65.2809 39.6333 65.2809 39.34V28.46C65.2809 28.1667 65.1209 27.9733 64.8009 27.88C64.4809 27.7867 64.0743 27.74 63.5809 27.74H63.3609V26.8H69.3809ZM66.7409 33H69.3809C70.0876 33 70.6543 32.8933 71.0809 32.68C71.5076 32.4667 71.8143 32.1667 72.0009 31.78C72.1876 31.38 72.2809 30.9267 72.2809 30.42C72.2809 29.8867 72.1743 29.44 71.9609 29.08C71.7609 28.7067 71.4476 28.4267 71.0209 28.24C70.5943 28.04 70.0409 27.94 69.3609 27.94H67.1409V39.86H69.5409C70.3009 39.86 70.9276 39.7533 71.4209 39.54C71.9143 39.3133 72.2743 38.9867 72.5009 38.56C72.7409 38.1333 72.8609 37.6133 72.8609 37C72.8609 36.44 72.7476 35.9467 72.5209 35.52C72.2943 35.08 71.9343 34.74 71.4409 34.5C70.9609 34.2467 70.3276 34.12 69.5409 34.12H66.7409V33ZM83.1845 40.24L82.8645 39.64L86.8245 28.1C86.8245 28.02 86.7379 27.9533 86.5645 27.9C86.3912 27.8467 86.1712 27.8067 85.9045 27.78C85.6512 27.7533 85.3979 27.74 85.1445 27.74H84.8445V26.8H89.4645V27.74H89.3645C88.9912 27.74 88.6979 27.7933 88.4845 27.9C88.2712 27.9933 88.0979 28.2267 87.9645 28.6L83.6845 41H81.6445L77.2045 28.3C77.1112 28.0333 76.9579 27.8733 76.7445 27.82C76.5312 27.7667 76.2512 27.74 75.9045 27.74H75.8045V26.8H81.0045V27.74H80.6645C80.4112 27.74 80.1512 27.7467 79.8845 27.76C79.6179 27.7733 79.3912 27.7933 79.2045 27.82C79.0312 27.8467 78.9445 27.8867 78.9445 27.94L83.1845 40.24Z" fill="#99A3FF"/>
</svg>
