<svg width="91" height="46" viewBox="0 0 91 46" fill="none" xmlns="http://www.w3.org/2000/svg">
<path d="M0.0149153 10.6174C0.0311865 18.7258 1.28 23.1195 3.98983 24.6011C5.20746 25.2675 5.28203 25.5896 4.5817 27.1599C4.14102 28.1483 3.52881 29.2247 3.38983 28.8001C3.25153 28.3762 3.38983 26.7221 3.38983 26.7221H0.0596611V35.2074L0.119322 43L4.53017 33.6565C8.56881 25.1026 8.83932 24.2534 7.73085 23.6127C7.06508 23.2275 5.81627 22.2252 4.95525 21.385C3.52339 19.9886 3.38983 19.2661 3.38983 12.8997V5.9418H8.81356C11.7966 5.9418 14.2373 6.10804 14.2373 6.31099C14.2373 6.51464 13.4692 8.22902 12.5308 10.1207L10.8244 13.5612H12.44C13.7864 13.5612 14.4095 12.7522 16.1803 8.70627C17.3492 6.036 18.3051 3.69822 18.3051 3.5112C18.3051 3.32417 14.1864 3.17109 9.15254 3.17109H0L0.0149153 10.6174Z" fill="#00A658"/>
<path fill-rule="evenodd" clip-rule="evenodd" d="M10.7193 22.8265L1.48537 42.6537H20.023H38.5606L35.1389 35.2074C31.7254 27.7791 29.3945 24.6441 27.284 24.6441C26.4169 24.6441 26.3505 24.4591 26.983 23.8129C28.5179 22.2446 27.7911 19.2848 23.8745 11.148L19.9525 3L10.7193 22.8265ZM24.1606 22.8646C25.2623 21.1467 25.2237 20.9154 23.0149 16.111C21.7566 13.3756 20.5382 10.8924 20.3071 10.5945C19.9477 10.1297 13.5593 23.0294 13.5593 24.2201C13.5593 24.4529 15.6881 24.6441 18.2894 24.6441C22.6203 24.6441 23.1159 24.4938 24.1606 22.8646ZM33.701 39.6232C33.8562 39.4639 32.741 36.8075 31.2216 33.7202L28.4596 28.1075H19.9484H11.4366L8.8535 33.822L6.27045 39.5366L19.844 39.7243C27.3098 39.8275 33.545 39.7818 33.701 39.6232Z" fill="#3C2A99"/>
<path d="M29.9477 22.0465C34.7918 32.4284 39.0352 41.2177 39.3776 41.58C39.7559 41.9804 39.9999 34.5798 39.9999 22.7046V3.17109H36.6101C33.6725 3.17109 33.2203 3.35604 33.2203 4.55644C33.2203 5.5726 33.6725 5.9418 34.9152 5.9418H36.6101L36.5769 17.5441L36.5443 29.1465L33.4623 22.566C26.3362 7.34932 25.8318 6.06302 26.8406 5.6675C27.366 5.46108 27.7966 4.81551 27.7966 4.23158C27.7966 3.42323 27.0054 3.17109 24.4684 3.17109H21.1396L29.9477 22.0465Z" fill="#3C2A99"/>
<path d="M56.68 3.8H50.9V4.74H51.12C51.6133 4.74 52.02 4.78667 52.34 4.88C52.66 4.97333 52.82 5.16667 52.82 5.46V16.34C52.82 16.6333 52.66 16.8267 52.34 16.92C52.02 17.0133 51.6133 17.06 51.12 17.06H50.9V18H61.52V13.52H60.32L60.14 15.96C60.1267 16.2 60.0267 16.38 59.84 16.5C59.6667 16.62 59.4 16.7067 59.04 16.76C58.68 16.8 58.2133 16.82 57.64 16.82H54.68V5.46C54.68 5.16667 54.8467 4.97333 55.18 4.88C55.5133 4.78667 55.94 4.74 56.46 4.74H56.68V3.8ZM69.0628 3.8H63.2828V4.74H63.5028C63.9961 4.74 64.4028 4.78667 64.7228 4.88C65.0428 4.97333 65.2028 5.16667 65.2028 5.46V16.34C65.2028 16.6333 65.0428 16.8267 64.7228 16.92C64.4028 17.0133 63.9961 17.06 63.5028 17.06H63.2828V18H73.9028V13.52H72.7028L72.5228 15.96C72.5095 16.2 72.4095 16.38 72.2228 16.5C72.0495 16.62 71.7828 16.7067 71.4228 16.76C71.0628 16.8 70.5961 16.82 70.0228 16.82H67.0628V5.46C67.0628 5.16667 67.2295 4.97333 67.5628 4.88C67.8961 4.78667 68.3228 4.74 68.8428 4.74H69.0628V3.8ZM82.3656 4.84C81.7256 4.84 81.119 4.98667 80.5456 5.28C79.9856 5.56 79.4923 5.96667 79.0656 6.5C78.639 7.03333 78.3056 7.67333 78.0656 8.42C77.8256 9.15333 77.7056 9.98 77.7056 10.9C77.7056 11.82 77.819 12.6533 78.0456 13.4C78.2856 14.1333 78.619 14.7667 79.0456 15.3C79.4723 15.8333 79.9923 16.2467 80.6056 16.54C81.219 16.82 81.9056 16.96 82.6656 16.96C83.4523 16.96 84.1456 16.78 84.7456 16.42C85.3456 16.06 85.8456 15.5733 86.2456 14.96C86.659 14.3333 86.959 13.64 87.1456 12.88L88.3656 13.34C88.139 14.2867 87.759 15.1267 87.2256 15.86C86.7056 16.5933 86.0456 17.1667 85.2456 17.58C84.459 17.9933 83.559 18.2 82.5456 18.2C81.5456 18.2 80.6256 18.0267 79.7856 17.68C78.959 17.32 78.239 16.82 77.6256 16.18C77.0123 15.5267 76.539 14.7533 76.2056 13.86C75.8723 12.9667 75.7056 11.98 75.7056 10.9C75.7056 9.83333 75.879 8.85333 76.2256 7.96C76.5723 7.06667 77.0523 6.29333 77.6656 5.64C78.279 4.98667 78.9856 4.48667 79.7856 4.14C80.5856 3.78 81.439 3.6 82.3456 3.6C83.2656 3.6 84.0523 3.74 84.7056 4.02C85.359 4.28667 85.899 4.67333 86.3256 5.18C86.7523 5.67333 87.0723 6.26667 87.2856 6.96H86.5456L86.8656 3.8H88.0656V8.08H86.7256C86.5123 7.42667 86.2123 6.86 85.8256 6.38C85.439 5.9 84.959 5.52667 84.3856 5.26C83.8256 4.98 83.1523 4.84 82.3656 4.84ZM56.7 39.84C57.26 39.84 57.7333 39.7667 58.12 39.62C58.52 39.46 58.8267 39.2133 59.04 38.88C59.2667 38.5467 59.38 38.1267 59.38 37.62C59.38 37.1533 59.28 36.7667 59.08 36.46C58.88 36.14 58.6 35.88 58.24 35.68C57.8933 35.4667 57.4933 35.2867 57.04 35.14C56.5867 34.9933 56.1067 34.8467 55.6 34.7C55.08 34.5533 54.56 34.38 54.04 34.18C53.52 33.98 53.0533 33.7267 52.64 33.42C52.2267 33.1 51.8933 32.7 51.64 32.22C51.4 31.74 51.28 31.14 51.28 30.42C51.28 29.62 51.4733 28.94 51.86 28.38C52.26 27.8067 52.7933 27.3667 53.46 27.06C54.1267 26.7533 54.8533 26.6 55.64 26.6C56.2933 26.6 56.8867 26.6867 57.42 26.86C57.9667 27.0333 58.46 27.34 58.9 27.78C59.34 28.22 59.7133 28.8467 60.02 29.66L59.2 29.7L59.54 26.8H60.8V30.54H59.36C59.16 29.9933 58.8867 29.5267 58.54 29.14C58.2067 28.7533 57.8133 28.46 57.36 28.26C56.92 28.0467 56.44 27.94 55.92 27.94C55.4 27.94 54.9533 28.0267 54.58 28.2C54.22 28.36 53.94 28.5933 53.74 28.9C53.5533 29.2067 53.46 29.5733 53.46 30C53.46 30.4133 53.56 30.76 53.76 31.04C53.96 31.3067 54.2333 31.5333 54.58 31.72C54.9267 31.9067 55.32 32.0667 55.76 32.2C56.2133 32.3333 56.6867 32.46 57.18 32.58C57.74 32.74 58.2867 32.92 58.82 33.12C59.3533 33.32 59.8333 33.58 60.26 33.9C60.6867 34.2067 61.0267 34.6067 61.28 35.1C61.5333 35.58 61.66 36.1867 61.66 36.92C61.66 37.8133 61.4467 38.58 61.02 39.22C60.6067 39.86 60.0333 40.3533 59.3 40.7C58.58 41.0333 57.76 41.2 56.84 41.2C56.08 41.2 55.3467 41.08 54.64 40.84C53.9467 40.5867 53.3267 40.1933 52.78 39.66C52.2333 39.1267 51.8 38.4 51.48 37.48L52.48 37.6L52.14 41H50.8V36.56H52.28C52.5067 37.2133 52.8333 37.7933 53.26 38.3C53.7 38.7933 54.2133 39.1733 54.8 39.44C55.3867 39.7067 56.02 39.84 56.7 39.84ZM69.76 26.8C70.5467 26.8 71.24 26.8867 71.84 27.06C72.4533 27.22 72.9667 27.4533 73.38 27.76C73.8067 28.0667 74.1267 28.44 74.34 28.88C74.5533 29.32 74.66 29.8133 74.66 30.36C74.66 31.04 74.4733 31.6333 74.1 32.14C73.7267 32.6467 73.18 33.04 72.46 33.32C71.7533 33.5867 70.8933 33.7267 69.88 33.74L71.24 33.08V33.92L70.06 33.3C71.1533 33.3 72.0867 33.4533 72.86 33.76C73.6467 34.0533 74.2467 34.48 74.66 35.04C75.0733 35.5867 75.28 36.2467 75.28 37.02C75.28 37.6333 75.16 38.1867 74.92 38.68C74.68 39.1733 74.3333 39.5933 73.88 39.94C73.4267 40.2867 72.8667 40.5533 72.2 40.74C71.5467 40.9133 70.7933 41 69.94 41H63.3V39.92H63.52C63.9733 39.92 64.34 39.8733 64.62 39.78C64.9133 39.6867 65.06 39.4933 65.06 39.2V28.6C65.06 28.3067 64.9133 28.1133 64.62 28.02C64.34 27.9267 63.9733 27.88 63.52 27.88H63.3V26.8H69.76ZM67.1 32.94H69.46C70.1 32.94 70.62 32.84 71.02 32.64C71.42 32.44 71.7067 32.1533 71.88 31.78C72.0533 31.3933 72.14 30.9467 72.14 30.44C72.14 29.9333 72.04 29.5067 71.84 29.16C71.6533 28.8 71.36 28.5333 70.96 28.36C70.5733 28.1733 70.0733 28.08 69.46 28.08H67.58V39.72H69.62C70.3133 39.72 70.8867 39.62 71.34 39.42C71.7933 39.2067 72.1267 38.8933 72.34 38.48C72.5667 38.0667 72.68 37.56 72.68 36.96C72.68 36.4133 72.5733 35.9333 72.36 35.52C72.16 35.0933 71.8333 34.7667 71.38 34.54C70.9267 34.3 70.3333 34.18 69.6 34.18H67.1V32.94ZM83.917 40.1L83.497 39.36L87.237 28.24C87.237 28.16 87.157 28.0933 86.997 28.04C86.837 27.9867 86.637 27.9467 86.397 27.92C86.1704 27.8933 85.9437 27.88 85.717 27.88H85.417V26.8H89.917V27.88H89.817C89.4704 27.88 89.197 27.9333 88.997 28.04C88.797 28.1467 88.637 28.38 88.517 28.74L84.377 41H81.737L77.437 28.44C77.357 28.1867 77.217 28.0333 77.017 27.98C76.817 27.9133 76.5504 27.88 76.217 27.88H76.117V26.8H81.777V27.88H81.437C81.2104 27.88 80.977 27.8867 80.737 27.9C80.497 27.9133 80.297 27.9333 80.137 27.96C79.977 27.9867 79.897 28.0267 79.897 28.08L83.917 40.1Z" fill="#3C2A99"/>
</svg>
